<?xml version="1.0" encoding="utf-8"?>
<!-- Svg Vector Icons : http://www.onlinewebfonts.com/icon -->
<!DOCTYPE svg PUBLIC "-//W3C//DTD SVG 1.1//EN" "http://www.w3.org/Graphics/SVG/1.1/DTD/svg11.dtd">
<svg version="1.1" xmlns="http://www.w3.org/2000/svg" xmlns:xlink="http://www.w3.org/1999/xlink" x="0px" y="0px" viewBox="0 0 256 256" enable-background="new 0 0 256 256" xml:space="preserve">
<metadata> Svg Vector Icons : http://www.onlinewebfonts.com/icon </metadata>
<g><g><path fill="#68827E" d="M125.6,140.7H80.3c-38.8,0-70.3,32.3-70.3,72v4.6c0,16.3,31.5,16.3,70.3,16.3h45.3c38.8,0,70.3-0.6,70.3-16.3v-4.6C195.9,172.9,164.4,140.7,125.6,140.7z M64.1,116.1c5.1,5.1,11.2,9.1,17.8,11.9c6.6,2.7,13.8,4.2,21,4.2c7.2,0,14.4-1.4,21-4.2c6.6-2.7,12.7-6.8,17.8-11.9c5.1-5.1,9.1-11.2,11.9-17.8c2.7-6.6,4.2-13.8,4.2-21c0-7.2-1.4-14.4-4.2-21c-2.7-6.6-6.8-12.7-11.9-17.8c-5.1-5.1-11.2-9.1-17.8-11.9c-6.6-2.7-13.8-4.2-21-4.2c-7.2,0-14.4,1.4-21,4.2c-6.6,2.7-12.7,6.8-17.8,11.9C59,43.5,55,49.6,52.2,56.3S48,70.1,48,77.3c0,7.2,1.4,14.4,4.2,21C55,105,59,111.1,64.1,116.1z M187.8,155.9c0,0,36.2,41,18.6,75.4c23-0.5,39.6-2.9,39.6-13.1v-3.8C246,182.1,219.9,155.9,187.8,155.9z M144.8,130.2c0,0,23.6,4.3,35.2,17.5c1.5,1.7,4.4-1.2,6.5-2.1c5.5-2.2,10.5-5.5,14.8-9.7c4.2-4.1,7.6-9.1,9.9-14.5c2.3-5.4,3.5-11.2,3.5-17.1c0-5.9-1.2-11.7-3.5-17.1c-2.3-5.4-5.7-10.4-9.9-14.5c-4.2-4.1-9.3-7.4-14.8-9.7c-5.5-2.2-11.5-3.4-17.4-3.4C169,59.8,182.2,106.8,144.8,130.2z"/></g></g>
</svg>